<svg width="778" height="488" viewBox="0 0 778 488" fill="none" xmlns="http://www.w3.org/2000/svg">
<path d="M742.105 634.234C237.572 674.867 -194.481 72.5618 -218.826 297.513C-242.808 519.104 -37.4876 877.474 -28.9972 892.181C-28.7605 892.591 -28.4048 892.541 -27.9555 892.392L742.575 636.238C743.704 635.862 743.291 634.138 742.105 634.234Z" fill="white"/>
<path d="M330.95 519.829C333.623 534.029 323.591 548.637 307.382 551.688C291.173 554.739 276.516 544.779 273.843 530.579C271.17 516.379 281.202 501.771 297.411 498.72C313.62 495.668 328.277 505.629 330.95 519.829Z" fill="#1E90FF" stroke="white" stroke-width="16"/>
<path d="M7.1835 311.266C11.4615 333.992 -4.40691 356.724 -29.2269 361.396C-54.0469 366.069 -77.0946 350.662 -81.3726 327.936C-85.6506 305.211 -69.7822 282.478 -44.9622 277.806C-20.1422 273.134 2.90553 288.54 7.1835 311.266Z" fill="#1E90FF" stroke="white" stroke-width="16"/>
<path d="M28.5656 370.227C30.1299 378.536 24.3145 387.309 14.5592 389.146C4.80389 390.982 -3.8034 384.924 -5.36764 376.614C-6.93188 368.305 -1.11645 359.532 8.63884 357.695C18.3941 355.859 27.0014 361.917 28.5656 370.227Z" fill="#1E90FF" stroke="white" stroke-width="16"/>
<path d="M98.7676 406.286C102.784 427.623 87.8404 449.048 64.3727 453.466C40.905 457.884 19.1937 443.358 15.1772 422.021C11.1608 400.685 26.1044 379.259 49.5721 374.841C73.0399 370.424 94.7512 384.95 98.7676 406.286Z" fill="#1E90FF" stroke="white" stroke-width="16"/>
<path d="M249.999 499.504C259.006 547.354 225.502 594.524 174.155 604.189C122.809 613.855 74.4465 582.096 65.4389 534.246C56.4314 486.396 89.9362 439.226 141.283 429.561C192.629 419.895 240.991 451.654 249.999 499.504Z" fill="#1E90FF" stroke="white" stroke-width="16"/>
<path d="M13.7079 427.868C17.768 449.436 2.67005 471.08 -21.0229 475.54C-44.7159 480 -66.65 465.327 -70.7101 443.759C-74.7702 422.191 -59.6722 400.548 -35.9793 396.087C-12.2863 391.627 9.64786 406.3 13.7079 427.868Z" fill="#1E90FF" stroke="white" stroke-width="16"/>
<rect x="377.936" y="983.271" width="748.058" height="457.446" transform="rotate(-152.813 377.936 983.271)" fill="url(#paint0_linear_370_702)" fill-opacity="0.25"/>
<defs>
<linearGradient id="paint0_linear_370_702" x1="751.965" y1="983.271" x2="751.965" y2="1440.72" gradientUnits="userSpaceOnUse">
<stop stop-color="#007DF6"/>
<stop offset="1" stop-color="#007DF6" stop-opacity="0"/>
</linearGradient>
</defs>
</svg>
